<svg xmlns="http://www.w3.org/2000/svg" viewBox="0 0 841.9 595.3">
    <g fill="#61DAFB">
        <path d="M666.3 313.1c0-45.6-15.3-79-44.5-103.7-37.1-32.2-74.7-51.9-126.6-65.7-11.2-3-24.3-9.6-42.6-17.5-3.9-1.8-6.7-3.6-9.3-5.4l-.9-.6c-9.4-6.9-19.2-12.6-29.7-17.5l-1.6-.9c-1.8-1-3.6-2-5.6-3.1-32.7-17.9-65.6-31.1-99.9-39.1-1.5-.4-3.1-.8-4.8-1.1-1.5-.3-3-.5-4.6-.7-.6-.1-1.3-.1-1.9-.2-4-.5-8-.9-12-1.1-1.2-.1-2.5-.2-3.7-.2h-1c-3.2 0-6.4.2-9.6.5-1.7.1-3.4.3-5.1.6-1.5.2-3 .4-4.5.7-34.4 7.9-67.5 21.1-100.3 39-1.8 1-3.6 2-5.4 3.1l-1.6.9c-10.2 4.8-19.9 10.4-29.2 17.2l-1 .6c-2.5 1.8-5.2 3.6-9 5.4-18.3 7.9-31.5 14.5-42.6 17.5-51.7 13.7-89.4 33.4-126.5 65.6-29.2 24.6-44.5 58-44.5 103.6 0 45.6 15.3 79 44.5 103.7 37.1 32.2 74.7 51.9 126.6 65.7 11.2 3 24.3 9.6 42.6 17.5 3.9 1.8 6.7 3.6 9.3 5.4l.9.6c9.4 6.9 19.2 12.6 29.7 17.5l1.6.9c1.8 1 3.6 2 5.6 3.1 32.7 17.9 65.6 31.1 99.9 39.1 1.5.4 3.1.8 4.8 1.1 1.5.3 3 .5 4.6.7.6.1 1.3.1 1.9.2 4 .5 8 .9 12 1.1 1.2.1 2.5.2 3.7.2h1c3.2 0 6.4-.2 9.6-.5 1.7-.1 3.4-.3 5.1-.6 1.5-.2 3-.4 4.5-.7 34.4-7.9 67.5-21.1 100.3-39 1.8-1 3.6-2 5.4-3.1l1.6-.9c10.2-4.8 19.9-10.4 29.2-17.2l1-.6c2.5-1.8 5.2-3.6 9-5.4 18.3-7.9 31.5-14.5 42.6-17.5 51.7-13.7 89.4-33.4 126.5-65.6 29.2-24.6 44.5-58 44.5-103.6zm-339.5 117.8l-11.6-6.7c-1.6-.9-3.2-1.8-4.9-2.7l-1.6-.9c-1.8-1-3.6-2-5.4-3.1-32.7-17.9-65.6-31.1-99.9-39.1-1.5-.4-3.1-.8-4.8-1.1-1.5-.3-3-.5-4.6-.7-.6-.1-1.3-.1-1.9-.2-4-.5-8-.9-12-1.1-1.2-.1-2.5-.2-3.7-.2h-1c-3.2 0-6.4.2-9.6.5-1.7.1-3.4.3-5.1.6-1.5.2-3 .4-4.5.7-34.4 7.9-67.5 21.1-100.3 39-1.8 1-3.6 2-5.4 3.1l-1.6.9c-10.2 4.8-19.9 10.4-29.2 17.2l-1 .6c-2.5 1.8-5.2 3.6-9 5.4-18.3 7.9-31.5 14.5-42.6 17.5-51.7 13.7-89.4 33.4-126.5 65.6-29.2 24.6-44.5 58-44.5 103.6 0 45.6 15.3 79 44.5 103.7 37.1 32.2 74.7 51.9 126.6 65.7 11.2 3 24.3 9.6 42.6 17.5 3.9 1.8 6.7 3.6 9.3 5.4l.9.6c9.4 6.9 19.2 12.6 29.7 17.5l1.6.9c1.8 1 3.6 2 5.6 3.1 32.7 17.9 65.6 31.1 99.9 39.1 1.5.4 3.1.8 4.8 1.1 1.5.3 3 .5 4.6.7.6.1 1.3.1 1.9.2 4 .5 8 .9 12 1.1 1.2.1 2.5.2 3.7.2h1c3.2 0 6.4-.2 9.6-.5 1.7-.1 3.4-.3 5.1-.6 1.5-.2 3-.4 4.5-.7 34.4-7.9 67.5-21.1 100.3-39 1.8-1 3.6-2 5.4-3.1l1.6-.9c10.2-4.8 19.9-10.4 29.2-17.2l1-.6c2.5-1.8 5.2-3.6 9-5.4 18.3-7.9 31.5-14.5 42.6-17.5 51.7-13.7 89.4-33.4-126.5-65.6-29.2-24.6-44.5-58-44.5-103.6zm-339.5 117.8l-11.6-6.7c-1.6-.9-3.2-1.8-4.9-2.7l-1.6-.9c-1.8-1-3.6-2-5.4-3.1-32.7-17.9-65.6-31.1-99.9-39.1-1.5-.4-3.1-.8-4.8-1.1-1.5-.3-3-.5-4.6-.7-.6-.1-1.3-.1-1.9-.2-4-.5-8-.9-12-1.1-1.2-.1-2.5-.2-3.7-.2h-1c-3.2 0-6.4.2-9.6.5-1.7.1-3.4.3-5.1.6-1.5.2-3 .4-4.5.7-34.4 7.9-67.5 21.1-100.3 39-1.8 1-3.6 2-5.4 3.1l-1.6.9c-10.2 4.8-19.9 10.4-29.2 17.2l-1 .6c-2.5 1.8-5.2 3.6-9 5.4-18.3 7.9-31.5 14.5-42.6 17.5-51.7 13.7-89.4 33.4-126.5 65.6-29.2 24.6-44.5 58-44.5 103.6 0 45.6 15.3 79 44.5 103.7 37.1 32.2 74.7 51.9 126.6 65.7 11.2 3 24.3 9.6 42.6 17.5 3.9 1.8 6.7 3.6 9.3 5.4l.9.6c9.4 6.9 19.2 12.6 29.7 17.5l1.6.9c1.8 1 3.6 2 5.6 3.1 32.7 17.9 65.6 31.1 99.9 39.1 1.5.4 3.1.8 4.8 1.1 1.5.3 3 .5 4.6.7.6.1 1.3.1 1.9.2 4 .5 8 .9 12 1.1 1.2.1 2.5.2 3.7.2h1c3.2 0 6.4-.2 9.6-.5 1.7-.1 3.4-.3 5.1-.6 1.5-.2 3-.4 4.5-.7 34.4-7.9 67.5-21.1 100.3-39 1.8-1 3.6-2 5.4-3.1l1.6-.9c10.2-4.8 19.9-10.4 29.2-17.2l1-.6c2.5-1.8 5.2-3.6 9-5.4 18.3-7.9 31.5-14.5 42.6-17.5 51.7-13.7 89.4-33.4-126.5-65.6-29.2-24.6-44.5-58-44.5-103.6z"/>
    </g>
</svg>